# xmcd
#
# Track frame offsets: 
#        150
#        21853
#        43905
#        63658
#        86029
#        109445
#        134019
#
# Disc length: 2022 seconds
#
# Revision: 0
# Processed by: cddbd v1.5.2PL0 Copyright (c) Steve Scherf et al.
# Submitted via: ExactAudioCopy v1.3
#
DISCID=6a07e407
DTITLE=Bernie Marsden - Jam With Bernie
DYEAR=2013
DGENRE=Blues
TTITLE0=Chargroove
TTITLE1=BB Thing
TTITLE2=Livitate
TTITLE3=Strictly Latino
TTITLE4=Margey
TTITLE5=Dynaflow
TTITLE6=Morris Minor
EXTD=
EXTT0=
EXTT1=
EXTT2=
EXTT3=
EXTT4=
EXTT5=
EXTT6=
PLAYORDER=
